<?xml version="1.0" standalone="no"?><!DOCTYPE svg PUBLIC "-//W3C//DTD SVG 1.1//EN" "http://www.w3.org/Graphics/SVG/1.1/DTD/svg11.dtd"><svg t="1640670627060" class="icon" viewBox="0 0 1024 1024" version="1.1" xmlns="http://www.w3.org/2000/svg" p-id="2264" xmlns:xlink="http://www.w3.org/1999/xlink" width="32" height="32"><defs><style type="text/css"></style></defs><path d="M914.79744 283.52l-55.36 32a32.096 32.096 0 0 1-32-55.68l55.36-32a32.096 32.096 0 0 1 32 55.68zM512.23744 768a288 288 0 1 1 288-288 288 288 0 0 1-288 288z m0-512a224 224 0 1 0 224 224 223.84 223.84 0 0 0-224-224z m218.88-92.48a32 32 0 0 1-55.36-32l32-55.36a32 32 0 1 1 55.36 32zM512.23744 128a32 32 0 0 1-32-32V32a32 32 0 0 1 64 0v64a32 32 0 0 1-32 32zM336.87744 174.72a32.224 32.224 0 0 1-43.84-11.52l-32-55.68a32 32 0 0 1 55.36-32l32 55.68a32 32 0 0 1-11.52 43.52zM164.39744 314.56l-55.36-32a31.52 31.52 0 0 1-11.52-43.52 32 32 0 0 1 43.52-11.84l55.36 32a32 32 0 1 1-32 55.36zM384.23744 832h256a32 32 0 0 1 0 64h-256a32 32 0 0 1 0-64z m64 128h128a32 32 0 0 1 0 64h-128a32 32 0 0 1 0-64z" fill="#FFAA55" p-id="2265"></path></svg>