<?xml version="1.0" standalone="no"?><!DOCTYPE svg PUBLIC "-//W3C//DTD SVG 1.1//EN" "http://www.w3.org/Graphics/SVG/1.1/DTD/svg11.dtd"><svg t="1640670530129" class="icon" viewBox="0 0 1024 1024" version="1.1" xmlns="http://www.w3.org/2000/svg" p-id="1986" width="32" height="32" xmlns:xlink="http://www.w3.org/1999/xlink"><defs><style type="text/css"></style></defs><path d="M477.366857 97.682286a78.226286 78.226286 0 0 1 56.905143 0l350.829714 137.033143a70.436571 70.436571 0 0 1 43.849143 77.165714c0.621714 2.816 0.950857 5.814857 0.950857 8.886857v390.4c0 28.928-15.981714 55.552-41.581714 69.12l-352.182857 186.624a42.788571 42.788571 0 0 1-23.149714 4.900571 42.861714 42.861714 0 0 1-24.064-4.352l-362.788572-183.003428a78.226286 78.226286 0 0 1-43.008-69.851429L83.090286 314.148571a69.961143 69.961143 0 0 1 0-27.538285v-4.132572l0.914285 0.219429 0.731429-2.816c5.668571-18.578286 18.688-33.901714 35.913143-42.532572l5.851428-2.596571z m-316.013714 286.829714v330.130286l311.625143 157.074285V471.186286l-76.763429-23.296-234.861714-63.378286z m690.285714-8.301714l-300.434286 91.172571v1.243429l0.073143 401.700571 300.397715-159.158857v-334.994286z m-345.819428-205.641143L176.018286 299.373714l241.517714 73.289143 75.849143 20.48c5.12 1.353143 10.057143 3.254857 14.665143 5.558857l8.777143-2.596571c3.620571-1.828571 7.424-3.291429 11.337142-4.534857l303.945143-93.659429-326.290285-127.341714z" fill="#435FFF" p-id="1987"></path><path d="M487.314286 432.018286L122.221714 333.494857v384.585143c0 12.653714 7.131429 24.210286 18.432 29.915429l366.665143 184.941714a3.364571 3.364571 0 0 0 4.864-2.998857l-0.073143-465.554286a33.536 33.536 0 0 0-24.795428-32.365714z" fill="#435FFF" opacity=".2" p-id="1988"></path></svg>